<svg width="400" height="300" viewBox="0 0 400 300" fill="none" xmlns="http://www.w3.org/2000/svg">
  <rect width="400" height="300" fill="#f8f9fa"/>
  <circle cx="200" cy="150" r="100" fill="#f39c12" opacity="0.1"/>
  <circle cx="200" cy="150" r="80" fill="#f39c12" opacity="0.2"/>
  <circle cx="200" cy="150" r="60" fill="#f39c12" opacity="0.3"/>
  
  <!-- Chicken wings -->
  <path d="M160 140 Q180 120 200 140 Q210 150 200 160 Q180 170 160 160 Q150 150 160 140 Z" fill="#ffeaa7" stroke="#fdcb6e" stroke-width="2"/>
  <path d="M200 140 Q220 120 240 140 Q250 150 240 160 Q220 170 200 160 Q190 150 200 140 Z" fill="#ffeaa7" stroke="#fdcb6e" stroke-width="2"/>
  
  <!-- Wing bones -->
  <line x1="165" y1="145" x2="175" y2="155" stroke="#e17055" stroke-width="3" stroke-linecap="round"/>
  <line x1="205" y1="145" x2="215" y2="155" stroke="#e17055" stroke-width="3" stroke-linecap="round"/>
  
  <!-- Seasoning dots -->
  <circle cx="170" cy="150" r="1" fill="#d63031"/>
  <circle cx="185" cy="145" r="1" fill="#00b894"/>
  <circle cx="210" cy="150" r="1" fill="#d63031"/>
  <circle cx="225" cy="145" r="1" fill="#00b894"/>
  
  <text x="200" y="250" text-anchor="middle" font-family="Arial, sans-serif" font-size="18" font-weight="600" fill="#2c5530">Chicken Wings (Halal)</text>
  <text x="200" y="270" text-anchor="middle" font-family="Arial, sans-serif" font-size="14" fill="#666">Perfect for Grilling</text>
</svg>