<svg width="400" height="300" viewBox="0 0 400 300" fill="none" xmlns="http://www.w3.org/2000/svg">
  <rect width="400" height="300" fill="#f8f9fa"/>
  <circle cx="200" cy="150" r="100" fill="#d63031" opacity="0.1"/>
  <circle cx="200" cy="150" r="80" fill="#d63031" opacity="0.2"/>
  <circle cx="200" cy="150" r="60" fill="#d63031" opacity="0.3"/>
  
  <!-- Ground beef texture -->
  <g fill="#a0392a">
    <circle cx="170" cy="130" r="4"/>
    <circle cx="185" cy="125" r="3"/>
    <circle cx="200" cy="135" r="5"/>
    <circle cx="220" cy="130" r="4"/>
    <circle cx="235" cy="140" r="3"/>
    <circle cx="160" cy="150" r="3"/>
    <circle cx="180" cy="155" r="4"/>
    <circle cx="205" cy="160" r="3"/>
    <circle cx="225" cy="155" r="5"/>
    <circle cx="240" cy="165" r="3"/>
    <circle cx="175" cy="175" r="4"/>
    <circle cx="195" cy="180" r="3"/>
    <circle cx="215" cy="175" r="4"/>
    <circle cx="165" cy="165" r="3"/>
    <circle cx="210" cy="145" r="3"/>
  </g>
  
  <!-- Container outline -->
  <rect x="140" y="120" width="120" height="60" fill="none" stroke="#8b2f1f" stroke-width="2" rx="5"/>
  
  <text x="200" y="250" text-anchor="middle" font-family="Arial, sans-serif" font-size="18" font-weight="600" fill="#2c5530">Ground Beef (Halal)</text>
  <text x="200" y="270" text-anchor="middle" font-family="Arial, sans-serif" font-size="14" fill="#666">Perfect for Burgers</text>
</svg>